<svg id="Layer_1" data-name="Layer 1" xmlns="http://www.w3.org/2000/svg" viewBox="0 0 1364 277.28">
  <defs>
    <style>
      .cls-1 {
        fill: none;
        stroke: #6d3842;
        stroke-miterlimit: 10;
      }

      .cls-2 {
        fill: #ed5956;
      }

      .cls-3 {
        fill: #ea4335;
      }
    </style>
  </defs>
  <title>Untitled-1</title>
  <path id="tim" class="cls-1" d="M685.11,222.53,588.67,119.89a74,74,0,0,1-20.38-49.81c-.55-59.75,72.35-84.8,118.8-28.4C747-34.6,826.25,34.44,801.72,94.45a63.52,63.52,0,0,1-13,19.73Z" transform="translate(-2.5 -6.47)"/>
  <polyline class="cls-1" points="1364 216.05 1281 216.05 1271 170.05 1241 274.05 1214 118.05 1183 262.05 1174 216.05 684 216.05 195 216.05 186 263.05 155 119.05 128 275.05 98 171.05 88 216.05 0 216.05"/>
  <g id="_timmau_" data-name="&lt;timmau&gt;">
    <path class="cls-2" d="M802.5,93.92a64.12,64.12,0,0,1-13.17,20L686,222v-182c.17.2.34.39.5.59C747.08-36.66,827.33,33.2,802.5,93.92Z" transform="translate(-2.5 -6.47)"/>
    <path class="cls-3" d="M569.5,93.92a64.12,64.12,0,0,0,13.17,20L686,222v-182c-.17.2-.34.39-.5.59C624.92-36.66,544.67,33.2,569.5,93.92Z" transform="translate(-2.5 -6.47)"/>
  </g>
</svg>
